<?xml version="1.0" encoding="UTF-8" standalone="no"?>
<!-- Created with Inkscape (http://www.inkscape.org/) -->

<svg
   version="1.1"
   id="svg117"
   width="2048"
   height="4096"
   viewBox="0 0 2048 4096"
   sodipodi:docname="test.svg"
   inkscape:version="1.1 (1:1.1+202105261517+ce6663b3b7)"
   xmlns:inkscape="http://www.inkscape.org/namespaces/inkscape"
   xmlns:sodipodi="http://sodipodi.sourceforge.net/DTD/sodipodi-0.dtd"
   xmlns="http://www.w3.org/2000/svg"
   xmlns:svg="http://www.w3.org/2000/svg">
  <defs
     id="defs121">
    <inkscape:path-effect
       effect="spiro"
       id="path-effect4194"
       is_visible="true"
       lpeversion="1" />
    <inkscape:path-effect
       effect="spiro"
       id="path-effect3504"
       is_visible="true"
       lpeversion="1" />
    <inkscape:path-effect
       effect="spiro"
       id="path-effect2168"
       is_visible="true"
       lpeversion="1" />
    <inkscape:path-effect
       effect="spiro"
       id="path-effect722"
       is_visible="true"
       lpeversion="1" />
    <inkscape:path-effect
       effect="spiro"
       id="path-effect603"
       is_visible="true"
       lpeversion="1" />
    <radialGradient
       inkscape:collect="always"
       id="radialGradient25611"
       cx="2023.4252"
       cy="1929.8926"
       fx="2023.4252"
       fy="1929.8926"
       r="1030"
       gradientTransform="matrix(0.49936011,-0.297165,0.323518,0.54364406,351.05215,1183.375)"
       gradientUnits="userSpaceOnUse">
      <stop
         style="stop-color:#063769;stop-opacity:0.94901961"
         offset="0"
         id="stop10" />
      <stop
         style="stop-color:#0091c7;stop-opacity:0.94901961"
         offset="1"
         id="stop12" />
    </radialGradient>
  </defs>
  <sodipodi:namedview
     id="namedview119"
     pagecolor="#ffffff"
     bordercolor="#666666"
     borderopacity="1.0"
     inkscape:pageshadow="2"
     inkscape:pageopacity="0.0"
     inkscape:pagecheckerboard="0"
     showgrid="true"
     inkscape:zoom="0.11215817"
     inkscape:cx="499.29486"
     inkscape:cy="2104.1712"
     inkscape:window-width="1600"
     inkscape:window-height="840"
     inkscape:window-x="0"
     inkscape:window-y="28"
     inkscape:window-maximized="1"
     inkscape:current-layer="layer1" />
  <g
     inkscape:groupmode="layer"
     id="layer1"
     inkscape:label="one"
     style="display:inline;opacity:1">
    <path
       style="fill:#071546;stroke:#000000;stroke-width:1px;stroke-linecap:butt;stroke-linejoin:miter;stroke-opacity:1;fill-opacity:1"
       d="M 0,0 V 4096 H 2048 V 0 Z"
       id="path601"
       inkscape:path-effect="#path-effect603"
       inkscape:original-d="m 0,0 c 0,0 0,4096 0,4096 0,0 2048,0 2048,0 0,0 0,-4096 0,-4096 C 2048,0 0,0 0,0 Z" />
    <path
       style="fill:#04497c;fill-opacity:0.94902;stroke:none;stroke-width:1px;stroke-linecap:butt;stroke-linejoin:miter;stroke-opacity:1"
       d="M -543.9251,4390.3329 2048,4096 2060,1520 c -8.1044,30.9293 -28.8932,58.3313 -56.496,74.468 -27.6027,16.1367 -61.6792,20.8093 -92.6068,12.6984 -24.1082,-6.3225 -45.9572,-20.05 -63.5587,-37.6957 -17.6014,-17.6456 -31.0877,-39.1118 -41.2101,-61.887 -20.2449,-45.5506 -27.1314,-95.6775 -36.0148,-144.7264 -28.7797,-158.9038 -84.5717,-319.8584 -200.3465,-432.44116 -57.8874,-56.29138 -130.1912,-98.84238 -209.1018,-115.95326 -78.9107,-17.11088 -164.3709,-7.69646 -234.8581,31.6891 -53.1808,29.71538 -96.6082,75.51665 -127.11487,128.24748 -30.50672,52.73084 -48.41774,112.21464 -56.31004,172.62084 -16.25612,124.4213 9.44824,251.2257 52.58009,369.0585 65.01552,177.6171 168.95512,339.2341 230.91502,517.9401 104.7039,301.9891 80.0644,646.4678 -66.5544,930.4805 -146.6188,284.0128 -413.17499,503.6044 -720.0021,593.1446 -306.82711,89.5403 -649.65199,47.7824 -926.01358,-112.7935 -276.36158,-160.5759 -482.41098,-437.7334 -556.56562,-748.6376 z"
       id="path720"
       inkscape:path-effect="#path-effect722"
       inkscape:original-d="M -543.9251,4390.3329 2048,4096 2060,1520 c 0,0 -92.5835,47.8971 -149.1028,87.1664 -56.5194,39.2693 -100.0209,-180.2675 -140.7836,-244.3091 -40.7628,-64.0416 -415.8678,-327.8048 -644.3064,-516.70532 -228.43853,-188.90049 -107.7618,143.63512 -183.42491,300.86832 -49.11872,102.0722 29.03927,242.7776 52.58009,369.0585 23.54082,126.2808 145.60132,319.8634 230.91502,517.9401 85.3138,198.0768 -2269.1357,662.194 -2269.1357,662.194 z"
       sodipodi:nodetypes="cccsssssscc" >
       <animateTransform 
         attributeName="transform" 
         type="rotate"
         from="5 2000 4000"
         to="0 2000 4000" 
         dur="500ms"
         begin="0s"
         fill="freeze" 
      />
    </path>
    <path
       style="fill:#026ea3;fill-opacity:0.94902;stroke:none;stroke-width:1px;stroke-linecap:butt;stroke-linejoin:miter;stroke-opacity:1"
       d="M -543.9251,4390.3329 2048,4096 2060,1520 c -11.2826,28.9354 -32.5678,53.861 -59.3796,69.5354 -26.8118,15.6743 -58.9739,21.9943 -89.7232,17.631 -24.8571,-3.5272 -48.5068,-13.8218 -69.13,-28.1395 -20.6233,-14.3176 -38.3125,-32.5817 -53.4955,-52.5766 -30.3659,-39.9897 -50.6821,-86.49 -73.6329,-131.1501 -38.7218,-75.3488 -86.6389,-147.646 -152.2828,-201.1967 -65.644,-53.5508 -151.0086,-86.8358 -235.1258,-76.7801 -67.5524,8.0755 -131.2508,44.5566 -172.3968,98.7372 -31.6025,41.6138 -49.7756,92.4372 -57.0944,144.1757 -7.3189,51.7384 -4.1695,104.5068 3.8407,156.1427 28.0031,180.5166 113.8026,346.2649 167.8811,520.7525 84.4627,272.5242 89.9866,569.0181 15.7336,844.4992 -74.253,275.4812 -228.0365,529.0355 -438.01921,722.1951 -209.98276,193.1595 -475.46808,325.2834 -756.177858,376.3264 -280.709782,51.043 -575.712652,20.8358 -840.252262,-86.0387 z"
       id="path2164"
       inkscape:path-effect="#path-effect2168"
       inkscape:original-d="M -543.9251,4390.3329 2048,4096 2060,1520 c 0,0 -92.5835,47.8971 -149.1028,87.1664 -56.5194,39.2693 -809.3474,537.5929 -196.2584,-211.8662 48.0667,-58.7582 -158.97,-89.0763 -387.4086,-277.9768 -228.4385,-188.90059 -96.7336,-58.496 -172.3968,98.7372 -49.1187,102.0722 -76.7945,174.0375 -53.2537,300.3184 23.5408,126.2808 82.5674,322.6758 167.8811,520.7525 85.3138,198.0768 -2018.71573,1856.982 -2018.71573,1856.982 z"
       sodipodi:nodetypes="cccsssssscc" >
       <animateTransform 
         attributeName="transform" 
         type="rotate"
         from="10 2000 4000"
         to="0 2000 4000" 
         dur="700ms"
         begin="0s"
         fill="freeze" 
      />
    </path>
    <path
       style="fill:#027cb1;fill-opacity:0.94902;stroke:none;stroke-width:1px;stroke-linecap:butt;stroke-linejoin:miter;stroke-opacity:1"
       d="M -543.9251,4390.3329 2048,4096 2060,1520 c -13.531,27.3068 -35.1955,50.5194 -61.5048,65.9 -26.3094,15.3807 -57.1649,22.8715 -87.598,21.2664 -50.2031,-2.6478 -96.4579,-29.3219 -133.8463,-62.9295 -37.3884,-33.6075 -67.6254,-74.2492 -100.7492,-112.0668 -35.1936,-40.1808 -74.2679,-77.6848 -120.2025,-104.9448 -45.9346,-27.26 -99.3301,-43.855 -152.6127,-40.1054 -45.7941,3.2226 -90.439,21.7401 -124.8173,52.164 -40.3386,35.6986 -65.5427,86.378 -77.0068,139.0104 -11.4642,52.6323 -9.9818,107.3359 -3.2613,160.7814 18.748,149.0951 77.0983,289.8308 119.315,434.048 126.354,431.6404 105.2039,905.0181 -59.1406,1323.6703 -164.3444,418.6522 -470.87194,780.0033 -857.11988,1010.4187 z"
       id="path3500"
       inkscape:path-effect="#path-effect3504"
       inkscape:original-d="M -543.9251,4390.3329 2048,4096 2060,1520 c 0,0 -92.5835,47.8971 -149.1028,87.1664 -56.5194,39.2693 -847.6845,574.4628 -234.5955,-174.9963 48.0667,-58.7582 -44.3766,43.8503 -272.8152,-145.0502 -228.4385,-188.9006 -49.1541,-105.0692 -124.8173,52.164 -49.1187,102.0722 -103.8089,173.5109 -80.2681,299.7918 23.5408,126.2808 34.0013,235.9713 119.315,434.048 85.3138,198.0768 -916.26048,2334.089 -916.26048,2334.089 z"
       sodipodi:nodetypes="cccsssssscc" >
       <animateTransform 
         attributeName="transform" 
         type="rotate"
         from="10 2000 4000"
         to="0 2000 4000" 
         dur="900ms"
         begin="0s"
         fill="freeze" 
      />
    </path>
    <path
       style="fill:url(#radialGradient25611);fill-opacity:1;stroke:none;stroke-width:1px;stroke-linecap:butt;stroke-linejoin:miter;stroke-opacity:1"
       d="M -543.9251,4390.3329 2048,4096 2060,1520 c -30.9702,51.4352 -89.089,85.4118 -149.1028,87.1664 -45.4137,1.3277 -89.7945,-14.5795 -129.8024,-36.1094 -40.0079,-21.5299 -76.6643,-48.7138 -115.4059,-72.4468 -60.3029,-36.9413 -128.663,-66.0737 -199.3069,-62.8287 -43.2528,1.9868 -86.4525,16.7336 -119.4318,44.7892 -41.5487,35.3456 -64.1158,89.2203 -70.8034,143.3578 -6.6876,54.1376 1.0925,109.0085 11.728,162.5107 25.3421,127.484 66.8278,251.1141 100.0065,376.7866 194.581,737.0229 90.156,1548.4446 -284.6946,2212.1851 z"
       id="path4190"
       sodipodi:nodetypes="cccsssssscc"
       inkscape:original-d="M -543.9251,4390.3329 2048,4096 2060,1520 c 0,0 -92.5835,47.8971 -149.1028,87.1664 -56.5194,39.2693 -858.2973,640.9029 -245.2083,-108.5562 48.0667,-58.7582 29.1317,126.0718 -199.3069,-62.8287 -228.4385,-188.9006 -43.7686,-112.444 -119.4318,44.7892 -49.1187,102.0722 -82.6162,179.5876 -59.0754,305.8685 23.5408,126.2808 14.6928,178.7099 100.0065,376.7866 85.3138,198.0768 -284.6946,2212.1851 -284.6946,2212.1851 z"
       inkscape:path-effect="#path-effect4194" >
       <animateTransform 
         attributeName="transform" 
         type="rotate"
         from="10 2000 4000"
         to="0 2000 4000" 
         dur="1100ms"
         begin="0s"
         fill="freeze" 
      />
    </path>
  </g>
</svg>
